<?xml version="1.0" standalone="no"?>
<!DOCTYPE svg PUBLIC "-//W3C//DTD SVG 20010904//EN"
 "http://www.w3.org/TR/2001/REC-SVG-20010904/DTD/svg10.dtd">
<svg version="1.0" xmlns="http://www.w3.org/2000/svg"
 width="1280.000000pt" height="1280.000000pt" viewBox="0 0 1280.000000 1280.000000"
 preserveAspectRatio="xMidYMid meet">
<metadata>
Created by potrace 1.15, written by Peter Selinger 2001-2017
</metadata>
<g transform="translate(0.000000,1280.000000) scale(0.100000,-0.100000)"
fill="#000000" stroke="none">
<path d="M9020 11719 c-19 -10 -42 -19 -52 -19 -9 0 -29 -5 -43 -12 -34 -15
-34 -61 0 -91 61 -53 96 -94 102 -117 8 -36 51 -119 80 -158 l26 -34 -23 -49
c-32 -67 -53 -84 -143 -112 -46 -15 -111 -47 -158 -78 l-79 -52 -53 33 -52 32
-51 -16 c-39 -12 -72 -15 -142 -10 -86 7 -93 6 -136 -20 -25 -15 -53 -40 -61
-56 -14 -27 -20 -30 -53 -25 -20 2 -86 7 -147 10 -121 7 -155 12 -155 27 0 30
-127 181 -169 202 -18 9 -79 12 -196 12 l-170 -1 -80 41 c-44 22 -105 51 -136
63 -80 31 -99 52 -90 93 16 76 -4 84 -101 38 -75 -35 -82 -36 -133 -10 -44 22
-123 27 -158 9 -12 -6 -32 -21 -45 -33 l-24 -21 -20 28 c-42 57 -117 20 -141
-71 -8 -31 -20 -48 -39 -58 -25 -13 -28 -13 -43 9 -19 29 -59 49 -82 40 -10
-3 -35 -21 -55 -39 -34 -30 -57 -38 -127 -46 -18 -2 -28 -13 -36 -38 -12 -35
-35 -42 -59 -19 -20 19 -56 8 -88 -26 l-32 -35 -37 36 c-45 44 -94 53 -159 29
-98 -36 -112 -38 -140 -22 -34 21 -64 6 -101 -48 -27 -39 -29 -40 -126 -57
-156 -27 -185 -24 -269 22 -91 50 -117 51 -160 5 -45 -48 -74 -132 -85 -243
-5 -51 -11 -98 -15 -103 -3 -6 -20 11 -38 38 -40 61 -69 65 -103 13 -42 -64
-32 -62 -198 -58 l-152 3 -42 38 c-50 45 -75 47 -150 8 -31 -16 -69 -33 -86
-38 -19 -5 -37 -21 -50 -45 -18 -34 -22 -36 -81 -40 -56 -3 -68 -8 -111 -44
-26 -22 -70 -55 -98 -74 -89 -59 -105 -78 -105 -128 l0 -44 -60 7 c-58 7 -61
6 -102 -29 -23 -20 -48 -36 -55 -36 -8 0 -35 11 -61 25 -57 30 -168 35 -217 9
-92 -48 -185 -65 -185 -34 0 17 -55 11 -106 -11 -42 -19 -59 -21 -136 -15
-128 10 -128 10 -128 -122 l0 -107 61 -57 62 -57 -5 -63 c-7 -81 -49 -173 -90
-194 -16 -8 -34 -26 -41 -40 -10 -24 -15 -26 -58 -20 -38 5 -51 2 -73 -15 -34
-27 -62 -82 -82 -161 -9 -34 -27 -76 -40 -93 -42 -56 -97 -249 -87 -308 6 -41
0 -46 -70 -57 -171 -27 -222 -41 -249 -67 -15 -14 -30 -39 -33 -55 -5 -20 -18
-34 -46 -48 -25 -13 -41 -29 -45 -47 -13 -50 57 -205 102 -225 13 -6 24 -15
24 -19 0 -12 -55 -54 -88 -68 -22 -9 -36 -27 -55 -70 -27 -63 -69 -104 -135
-132 -33 -15 -47 -28 -62 -61 -25 -55 -25 -75 0 -132 14 -31 35 -56 66 -77 34
-23 44 -35 38 -47 -21 -49 -16 -70 24 -114 22 -24 52 -70 66 -103 36 -81 47
-90 136 -120 84 -28 94 -35 104 -77 6 -25 42 -86 102 -171 14 -21 55 -57 89
-79 51 -33 68 -52 87 -92 16 -36 30 -52 45 -54 45 -7 103 56 103 111 0 34 6
36 63 21 79 -20 110 -70 67 -109 -12 -11 -20 -31 -20 -51 0 -30 -3 -34 -41
-44 -41 -11 -43 -11 -80 26 -30 30 -42 35 -63 30 -18 -4 -26 -14 -28 -29 -2
-41 4 -82 14 -95 14 -16 14 -16 -67 -36 -75 -19 -115 -47 -115 -81 0 -11 -24
-57 -54 -102 -55 -82 -92 -179 -81 -213 7 -22 81 -60 117 -60 37 0 138 77 239
182 81 84 99 95 99 59 0 -8 19 -34 42 -58 34 -35 39 -45 29 -57 -7 -8 -11 -27
-9 -43 4 -34 37 -43 72 -19 23 15 24 14 35 -41 6 -31 11 -74 11 -95 0 -48 31
-84 60 -68 10 5 20 10 22 10 2 0 3 -21 3 -47 0 -123 24 -195 81 -242 30 -25
48 -31 79 -31 22 1 56 -2 76 -5 31 -6 41 -3 71 24 34 30 36 30 52 12 19 -21
116 -51 163 -51 17 0 59 9 94 19 35 11 93 22 129 26 111 12 153 25 211 65 98
69 242 78 295 19 16 -18 113 -58 189 -78 22 -6 75 -11 117 -11 42 0 89 -5 104
-10 15 -6 35 -8 45 -5 24 8 49 55 49 92 1 23 2 25 10 11 6 -9 20 -47 31 -85
12 -37 26 -74 31 -80 31 -39 90 7 134 104 18 40 36 73 39 73 18 0 45 -23 45
-38 0 -9 20 -37 45 -62 43 -44 44 -46 34 -83 -20 -73 -2 -84 165 -102 77 -9
100 -20 119 -60 8 -18 24 -35 36 -38 23 -6 66 14 103 50 25 24 48 24 48 0 0
-26 20 -41 60 -46 l41 -6 -51 -57 c-45 -51 -59 -60 -122 -79 -62 -18 -77 -19
-115 -9 -24 7 -46 17 -49 21 -3 5 -19 16 -35 25 -28 14 -33 14 -55 -1 -18 -11
-24 -25 -24 -50 0 -18 -4 -36 -9 -39 -4 -3 -26 10 -47 28 -21 18 -58 45 -82
60 -39 24 -49 26 -101 20 -57 -6 -59 -5 -98 30 -48 43 -106 70 -195 91 -87 20
-283 88 -363 126 -49 23 -73 42 -95 75 -35 50 -71 72 -148 90 -45 11 -62 10
-110 -3 -31 -8 -70 -19 -87 -23 -50 -13 -57 -19 -128 -101 -38 -43 -74 -79
-81 -79 -7 0 -31 -13 -54 -30 l-41 -29 -21 34 c-25 41 -60 53 -105 36 -17 -6
-54 -11 -82 -11 l-51 0 -11 -46 c-7 -25 -30 -84 -51 -130 -22 -46 -40 -88 -40
-94 0 -34 -35 -71 -102 -108 -90 -49 -103 -63 -117 -131 -11 -51 -10 -55 14
-87 32 -41 112 -102 183 -138 l52 -26 -15 -36 c-31 -75 -16 -104 57 -104 35 0
59 -7 90 -28 88 -56 108 -76 119 -115 11 -41 11 -41 109 -114 57 -42 66 -53
71 -88 6 -44 20 -75 43 -95 20 -16 20 -69 1 -145 -19 -73 -38 -95 -81 -95 -39
0 -64 -29 -64 -73 0 -18 -11 -42 -30 -64 -16 -18 -30 -39 -30 -46 0 -26 46
-85 132 -170 l90 -89 -4 -106 -3 -106 50 -10 c28 -5 66 -9 86 -10 l36 0 13
-62 c15 -80 29 -99 63 -90 30 7 121 78 148 116 27 36 35 128 16 171 -8 19 -19
52 -25 74 -5 22 -12 47 -16 55 -7 16 37 37 127 60 26 7 50 17 53 21 11 19 23
7 29 -29 24 -148 53 -212 116 -253 71 -45 89 -72 89 -133 0 -71 15 -117 46
-142 23 -19 26 -29 26 -80 0 -33 -3 -90 -7 -129 l-6 -70 71 -57 c40 -32 79
-58 87 -58 8 0 30 15 49 34 42 42 44 81 9 181 -38 106 -34 144 19 203 24 27
46 61 50 75 3 15 17 29 33 36 43 16 62 35 76 76 11 32 20 40 54 50 l41 12 21
-64 c21 -62 151 -274 187 -304 22 -18 44 -71 44 -104 0 -14 11 -34 25 -47 36
-31 33 -72 -10 -119 -19 -22 -35 -45 -35 -52 0 -6 -14 -32 -30 -57 -32 -48
-37 -83 -20 -140 8 -25 7 -47 -1 -76 -15 -57 8 -106 67 -140 69 -41 111 -42
161 -5 49 36 61 68 43 121 -11 34 -11 39 9 59 21 21 27 47 13 67 -4 6 -33 28
-64 48 -40 25 -58 43 -58 57 0 27 40 99 55 99 7 0 24 11 39 25 20 19 33 23 56
18 45 -9 110 37 110 77 0 25 -9 35 -52 63 -61 39 -72 51 -85 92 -6 20 -22 36
-46 48 -20 9 -37 24 -37 32 0 27 33 100 63 137 28 36 30 41 23 103 -7 72 -59
233 -126 390 -42 100 -72 145 -97 145 -9 0 -13 17 -13 60 0 66 -7 83 -111 271
-55 99 -59 110 -58 166 2 69 -3 80 -37 93 -31 12 -30 22 2 41 26 16 30 15 75
-8 56 -29 163 -42 197 -24 21 11 22 9 22 -21 0 -51 23 -76 78 -83 77 -11 77
-10 47 -61 -50 -86 -50 -99 2 -155 39 -42 51 -49 83 -49 30 0 44 6 64 31 14
17 26 34 26 39 0 4 13 13 30 20 21 9 33 23 41 50 l11 37 84 6 c107 8 230 63
254 114 8 18 27 37 43 44 27 11 38 51 18 63 -4 3 -59 9 -121 12 l-112 7 -14
33 c-8 18 -14 46 -14 61 0 36 -25 73 -50 73 -24 0 -33 -14 -45 -74 -6 -27 -15
-51 -21 -53 -7 -2 -38 18 -70 45 -33 26 -72 57 -87 67 -25 16 -27 22 -22 59 4
27 2 55 -7 77 -14 33 -13 35 14 61 15 14 28 34 28 43 0 33 -53 71 -127 90 -72
19 -73 19 -73 52 0 30 3 33 31 33 37 0 63 13 113 57 33 31 43 34 75 29 20 -4
71 -9 115 -13 68 -4 85 -2 126 17 27 12 52 31 57 42 7 15 20 21 53 23 37 2 51
-3 79 -28 19 -16 63 -42 98 -58 35 -15 63 -33 63 -39 0 -5 16 -27 35 -49 19
-21 35 -46 35 -54 0 -25 -44 -48 -118 -63 -272 -53 -254 -44 -267 -129 -9 -63
7 -77 91 -79 66 -1 73 1 125 37 54 37 54 37 159 37 81 0 111 4 129 16 39 28
93 4 176 -77 40 -38 78 -69 87 -69 24 0 44 30 62 92 27 96 22 152 -25 248
l-40 84 17 32 c18 33 18 33 -18 106 -20 40 -39 83 -42 94 -10 35 10 103 36
124 13 10 33 37 43 60 l18 41 -64 65 c-35 36 -87 81 -115 100 -63 43 -174 84
-230 84 -39 0 -130 25 -138 38 -2 4 4 18 15 30 l19 24 30 -22 c57 -40 150 -72
194 -66 23 3 85 7 139 10 l97 4 0 -33 c0 -26 12 -46 60 -99 61 -68 65 -76 51
-111 -11 -27 2 -49 43 -74 28 -18 34 -28 40 -70 7 -56 25 -75 83 -90 23 -6 43
-17 46 -24 2 -6 2 -37 -1 -68 -5 -66 0 -70 82 -62 42 4 57 10 61 24 9 28 20
24 67 -27 55 -59 88 -59 132 4 30 42 30 44 31 178 0 109 -3 136 -15 144 -8 5
-73 10 -143 10 -162 0 -178 7 -218 96 -19 41 -29 80 -29 111 -1 68 -15 121
-40 148 -13 14 -24 42 -27 67 -4 36 0 52 25 93 21 35 32 68 36 110 7 79 0 89
-58 83 -44 -5 -47 -4 -52 21 -13 59 -14 60 -72 71 -31 6 -75 18 -97 27 -24 9
-68 16 -109 15 -56 0 -76 4 -105 23 -20 13 -65 31 -101 39 -36 9 -87 32 -115
50 -27 19 -79 42 -115 52 -97 26 -126 41 -147 71 -28 41 -51 102 -58 153 -10
74 -14 79 -58 91 -27 7 -52 23 -70 45 -36 44 -67 44 -184 3 -122 -43 -182 -77
-215 -124 -16 -22 -59 -60 -96 -85 -45 -31 -68 -53 -70 -69 -3 -22 -1 -23 40
-18 23 2 69 10 101 18 l57 13 28 -32 c21 -25 44 -37 102 -54 114 -31 165 -63
184 -112 9 -23 34 -63 56 -89 21 -27 53 -72 69 -100 16 -29 39 -62 51 -75 12
-13 20 -25 19 -26 -7 -6 -103 -36 -114 -36 -21 0 -35 49 -29 103 8 72 -5 85
-94 102 -40 8 -89 23 -110 33 -78 40 -228 112 -257 123 -16 6 -59 13 -95 16
-88 7 -138 32 -173 88 -32 50 -58 61 -115 50 -78 -15 -85 -13 -95 28 -5 21 -7
40 -4 43 2 3 40 -7 83 -22 54 -19 101 -27 149 -28 64 -1 74 2 118 32 26 18 67
42 90 52 56 26 154 118 163 154 11 44 -25 70 -85 62 l-44 -6 5 67 c3 38 3 74
1 81 -3 7 -38 37 -78 67 -40 30 -75 62 -78 69 -3 8 1 37 10 64 l16 50 54 5
c30 3 61 11 69 17 11 10 15 9 20 -3 3 -9 30 -34 59 -56 30 -23 76 -63 104 -91
27 -27 58 -50 68 -50 10 -1 -4 -13 -32 -27 -77 -40 -115 -72 -115 -99 0 -27
17 -34 96 -36 42 -1 73 5 108 20 27 12 58 22 69 22 36 0 108 41 118 67 5 13 9
50 9 82 0 51 -6 66 -52 146 -55 92 -83 124 -158 178 -25 18 -54 48 -65 67 -11
19 -80 95 -154 169 l-134 135 -14 94 c-8 52 -23 117 -34 145 -25 64 -122 184
-165 205 -21 10 -37 28 -47 52 -19 49 -101 164 -135 191 -65 50 -68 105 -12
207 34 63 40 82 40 134 0 51 5 69 34 116 52 86 55 133 9 137 -22 1 -23 4 -23
59 0 37 3 43 18 40 22 -5 34 4 49 38 7 15 21 28 35 30 14 2 29 16 39 35 26 52
38 61 92 73 44 10 57 18 82 53 21 28 40 43 58 45 31 4 31 3 16 -84 -11 -61
-12 -64 -47 -74 -21 -5 -42 -10 -48 -10 -24 0 -64 -42 -64 -67 0 -13 14 -57
31 -96 31 -74 87 -137 120 -137 10 0 37 -20 61 -44 24 -23 61 -52 83 -63 69
-35 227 -85 255 -81 27 4 28 2 33 -50 3 -29 3 -84 1 -120 -5 -58 -2 -76 24
-135 26 -60 28 -72 18 -107 -14 -54 -4 -61 85 -64 54 -2 86 -8 117 -24 45 -24
177 -47 251 -44 58 2 93 25 89 60 -2 21 -19 37 -78 74 -41 26 -105 57 -142 69
-56 18 -77 31 -123 80 -32 33 -67 83 -81 116 -14 32 -32 62 -40 66 -14 8 -18
55 -8 94 9 31 32 36 65 13 15 -12 55 -26 87 -31 33 -6 75 -20 93 -32 19 -12
63 -38 99 -57 61 -33 68 -40 108 -115 32 -60 62 -99 122 -155 44 -41 80 -82
80 -91 0 -18 49 -66 70 -69 33 -5 41 2 71 62 28 56 31 67 24 122 -7 68 -36
143 -59 152 -8 3 -21 23 -30 45 -12 30 -27 44 -67 64 -124 64 -219 165 -219
236 l0 30 30 -21 c35 -25 72 -21 107 12 20 19 23 19 45 4 12 -9 35 -16 51 -16
31 0 60 -13 92 -39 11 -10 52 -30 90 -45 59 -24 76 -36 108 -79 20 -29 70 -87
110 -129 l73 -78 65 0 c76 0 109 18 109 58 0 21 -23 50 -112 135 -88 85 -116
119 -132 160 -20 49 -26 54 -92 87 -39 19 -91 52 -115 73 -48 42 -84 48 -94
16 -5 -15 -12 -19 -28 -15 -12 3 -38 6 -58 6 -27 0 -46 8 -69 30 -27 25 -31
35 -28 72 3 36 7 43 28 48 39 9 39 52 0 81 -18 13 -44 37 -58 53 -15 16 -42
45 -59 64 -32 34 -35 52 -9 52 16 0 46 32 46 48 0 7 -14 21 -30 31 -28 17 -29
19 -13 34 10 8 39 26 65 40 l48 25 33 -40 c27 -32 49 -45 116 -69 93 -33 146
-37 173 -12 10 9 66 44 125 77 59 34 115 73 125 87 11 14 25 50 31 80 12 53
14 55 72 84 33 17 82 44 109 62 l49 32 42 -72 c54 -91 63 -99 159 -136 94 -36
132 -32 181 20 38 39 143 109 218 144 52 25 137 103 137 126 0 5 4 9 9 9 5 0
12 -19 16 -42 8 -54 36 -102 60 -107 10 -1 38 7 62 19 41 21 45 21 62 6 10
-10 49 -22 87 -28 56 -8 78 -18 124 -52 94 -72 163 -91 222 -60 29 15 34 15
59 0 36 -21 74 -20 128 5 50 22 74 20 156 -16 29 -13 69 -27 89 -30 20 -4 39
-12 43 -19 4 -6 10 -45 13 -86 l5 -75 55 0 c73 0 110 27 145 103 42 93 114
218 138 240 122 110 121 108 87 227 -20 68 -20 72 -4 157 15 75 16 98 6 164
-7 42 -10 79 -7 84 9 14 236 28 270 16 34 -12 86 32 122 103 43 82 42 103 -7
152 -49 48 -56 74 -41 146 16 80 14 139 -5 157 -10 11 -34 16 -69 16 -52 0
-54 1 -89 50 -23 32 -45 52 -63 55 -16 4 -44 13 -63 21 -19 8 -57 14 -85 13
-27 -1 -81 6 -118 15 -86 20 -114 20 -157 -5z"/>
<path d="M7070 10121 c-27 -14 -41 -33 -64 -85 l-30 -68 20 -36 c28 -54 114
-137 157 -151 55 -18 182 15 249 66 61 47 62 72 3 89 l-40 11 4 67 c4 78 -7
96 -56 96 -18 0 -50 7 -70 15 -49 21 -131 19 -173 -4z"/>
<path d="M8281 9665 c-41 -13 -78 -30 -83 -37 -18 -29 -8 -56 30 -79 20 -12
51 -35 69 -50 44 -38 128 -65 159 -51 32 15 77 87 77 123 0 32 -31 72 -74 95
-50 25 -100 25 -178 -1z"/>
<path d="M7700 8906 c-55 -21 -188 -113 -195 -136 -3 -11 -4 -29 0 -40 8 -26
62 -70 85 -70 19 0 90 -78 90 -98 0 -6 12 -24 26 -41 38 -46 82 -43 139 10
l44 41 7 -26 c6 -27 51 -60 94 -71 20 -5 32 1 54 24 23 24 30 42 35 93 8 71
14 84 82 184 53 77 64 124 29 124 -12 0 -53 -18 -93 -40 -40 -21 -92 -46 -116
-55 l-44 -15 -68 65 c-73 71 -96 78 -169 51z"/>
<path d="M1056 8499 c-10 -6 -57 -12 -105 -13 l-86 -1 3 -125 c4 -147 7 -153
104 -220 62 -42 66 -48 71 -91 8 -67 48 -149 93 -190 45 -40 217 -102 288
-103 37 -1 41 2 44 24 5 42 -51 118 -103 140 -25 11 -68 41 -96 67 -55 52 -53
42 -33 150 5 25 1 35 -16 50 -95 76 -97 87 -26 128 78 46 107 95 66 115 -8 4
-48 24 -88 44 -79 39 -88 41 -116 25z"/>
<path d="M9205 7814 c-27 -7 -71 -14 -97 -14 -46 0 -48 -2 -69 -42 -34 -68
-47 -79 -86 -72 -53 10 -121 -5 -156 -34 -36 -30 -54 -42 -110 -72 -21 -12
-40 -27 -43 -34 -8 -20 45 -188 65 -208 31 -33 186 -49 249 -27 20 7 51 35 82
75 28 35 58 64 68 64 9 0 41 11 70 25 28 13 52 23 52 21 0 -2 -5 -16 -10 -32
-8 -23 -26 -37 -82 -64 -89 -43 -121 -83 -107 -133 14 -50 46 -72 154 -106 55
-17 122 -42 149 -56 83 -42 154 -29 213 39 18 20 37 36 42 36 26 0 91 34 96
50 6 18 -89 185 -201 353 -43 65 -53 90 -59 138 -4 35 -15 69 -27 84 -17 22
-27 25 -81 24 -34 0 -84 -7 -112 -15z"/>
<path d="M5831 7541 l-21 -21 40 -82 c50 -103 59 -114 110 -129 36 -11 45 -10
91 11 54 26 82 63 72 99 -7 27 -43 36 -84 22 -45 -16 -46 -15 -65 25 -18 37
-63 77 -101 88 -15 5 -28 1 -42 -13z"/>
<path d="M6950 7130 c-11 -11 -20 -26 -20 -33 0 -7 -11 -28 -25 -47 -34 -46
-32 -82 6 -114 17 -14 40 -26 52 -26 26 0 73 -55 83 -96 11 -48 24 -57 68 -50
54 9 134 54 151 85 26 50 -4 87 -119 145 -35 18 -42 27 -47 61 -12 75 -103
121 -149 75z"/>
<path d="M8746 6558 c-81 -11 -90 -20 -82 -90 9 -86 24 -114 121 -216 l89 -94
-77 -73 c-42 -40 -77 -80 -77 -88 0 -9 -4 -19 -10 -22 -19 -11 -10 -53 17 -86
48 -56 102 -89 147 -89 54 0 80 19 95 69 6 22 27 55 45 73 60 60 85 123 94
247 l7 85 40 20 c56 30 57 54 2 113 -25 27 -61 73 -80 104 l-36 56 -118 -1
c-65 0 -144 -4 -177 -8z"/>
<path d="M1956 6399 c-54 -47 -74 -87 -82 -164 -9 -93 -11 -97 -74 -161 -49
-50 -55 -60 -55 -97 2 -122 38 -197 96 -197 22 0 32 7 41 25 16 35 29 12 21
-37 -9 -61 7 -72 97 -65 92 7 109 1 135 -49 11 -21 32 -45 46 -53 25 -14 31
-13 91 17 113 55 137 105 80 163 -17 17 -56 87 -89 155 -45 97 -63 126 -81
131 -13 3 -29 0 -35 -6 -6 -6 -17 -11 -25 -11 -10 0 -12 14 -7 68 6 56 3 77
-15 127 -12 33 -29 80 -38 105 -17 50 -39 80 -58 80 -7 0 -29 -14 -48 -31z"/>
<path d="M7310 5593 c-61 -26 -80 -51 -80 -103 0 -64 40 -141 102 -193 28 -23
58 -58 69 -77 10 -19 47 -63 83 -98 53 -52 69 -63 92 -60 34 4 52 35 61 107 5
43 2 53 -22 85 -24 31 -26 41 -20 84 8 59 -5 72 -87 96 -34 10 -58 22 -58 30
0 8 -9 44 -20 80 -20 64 -22 66 -53 65 -18 0 -48 -7 -67 -16z"/>
<path d="M2113 5408 c-36 -35 -69 -71 -74 -80 -13 -25 10 -69 44 -83 l29 -12
-41 -29 c-57 -40 -69 -94 -20 -94 11 0 39 -10 62 -21 23 -12 63 -22 88 -23 39
-1 51 -6 81 -38 25 -27 44 -38 64 -38 45 0 74 25 74 64 0 19 8 44 18 56 17 21
18 21 48 4 60 -34 90 5 55 71 -36 69 -82 107 -133 110 -24 2 -72 14 -108 27
l-65 23 -5 53 c-5 48 -19 71 -43 72 -5 0 -38 -28 -74 -62z"/>
<path d="M9712 5232 c-150 -97 -162 -108 -162 -147 0 -56 17 -64 123 -58 l94
6 12 -33 c34 -100 105 -96 271 14 106 71 120 91 100 152 -15 44 -54 74 -96 74
-19 0 -57 9 -86 20 -29 11 -78 23 -108 26 -54 6 -57 5 -148 -54z"/>
<path d="M9220 5081 c-25 -10 -70 -23 -100 -29 -185 -36 -161 -24 -255 -125
-46 -51 -85 -100 -85 -109 0 -26 44 -54 109 -68 73 -15 108 -5 136 43 33 55
64 77 110 77 28 0 55 9 86 28 67 43 149 121 149 142 0 25 -47 60 -79 59 -14 0
-46 -8 -71 -18z"/>
<path d="M6759 5044 c-13 -14 -41 -35 -61 -45 -33 -17 -38 -24 -38 -54 0 -55
65 -155 101 -155 48 0 149 134 149 198 0 75 -99 112 -151 56z"/>
<path d="M6842 4744 c-26 -18 -30 -74 -8 -114 12 -21 12 -29 -1 -55 -9 -16
-22 -38 -30 -47 -8 -9 -13 -27 -11 -40 2 -18 10 -24 35 -26 42 -4 73 17 133
94 61 77 64 107 18 151 -59 55 -96 65 -136 37z"/>
<path d="M6943 4310 c-13 -5 -23 -15 -23 -22 0 -6 -12 -29 -26 -49 -31 -45
-26 -72 16 -94 44 -23 104 -19 135 8 35 30 46 114 19 138 -23 20 -91 30 -121
19z"/>
<path d="M8243 4290 c-3 -11 -36 -36 -79 -60 -94 -51 -107 -71 -101 -147 8
-88 40 -194 64 -210 11 -7 42 -16 69 -19 72 -9 93 13 143 142 45 116 51 174
25 230 -32 68 -109 109 -121 64z"/>
<path d="M9837 4283 c-24 -24 22 -190 61 -220 9 -7 35 -13 59 -13 l43 0 0 -45
c0 -42 4 -50 52 -95 89 -85 141 -64 137 56 -2 67 -3 70 -43 104 -22 19 -68 62
-101 96 -84 83 -185 140 -208 117z"/>
<path d="M7868 4232 c-15 -9 -54 -37 -88 -62 l-60 -45 6 -75 c8 -92 25 -115
84 -114 43 2 137 43 164 73 11 12 20 50 27 112 10 90 10 94 -11 111 -28 23
-87 23 -122 0z"/>
<path d="M7166 4067 c-27 -20 -16 -63 45 -174 57 -107 74 -115 127 -60 44 45
42 77 -7 141 -66 86 -128 120 -165 93z"/>
<path d="M8885 3906 c-11 -7 -46 -29 -77 -49 -34 -22 -70 -37 -88 -37 -33 0
-84 -45 -140 -121 -36 -50 -39 -84 -9 -100 41 -21 90 -4 180 62 47 35 125 92
173 127 95 69 106 91 56 117 -35 18 -68 19 -95 1z"/>
<path d="M10395 3828 c-100 -27 -244 -100 -298 -150 -51 -47 -117 -156 -117
-194 0 -14 9 -28 21 -35 31 -16 119 -6 168 19 33 17 59 22 121 22 132 0 188
44 123 96 -39 32 -25 49 80 104 86 45 157 102 157 127 0 37 -137 43 -255 11z"/>
<path d="M7948 3628 c-21 -23 -38 -52 -38 -64 0 -43 150 -134 221 -134 37 0
62 31 53 65 -13 53 -145 175 -190 175 -4 0 -24 -19 -46 -42z"/>
<path d="M6950 3584 c-43 -30 -53 -30 -91 -2 l-30 22 -43 -22 c-108 -58 -136
-130 -58 -152 140 -39 348 -10 360 52 3 16 -60 103 -86 117 -12 6 -27 2 -52
-15z"/>
<path d="M9333 3386 c-26 -22 -33 -23 -70 -13 -56 15 -73 0 -73 -63 0 -54 12
-68 80 -99 76 -35 104 -26 102 30 -1 31 23 45 66 40 43 -5 78 49 54 85 -12 19
-70 44 -101 44 -17 0 -42 -10 -58 -24z"/>
<path d="M8148 3139 c-11 -6 -18 -22 -18 -40 0 -17 -11 -47 -25 -67 -33 -49
-32 -64 11 -102 30 -26 42 -31 68 -26 53 11 75 43 81 115 6 71 -3 94 -45 116
-34 17 -48 18 -72 4z"/>
<path d="M11532 3099 c-83 -10 -202 -58 -292 -119 -67 -45 -74 -53 -90 -105
-8 -25 -34 -60 -73 -97 l-60 -57 5 -69 c4 -50 14 -86 37 -133 l32 -65 -20 -45
c-11 -24 -21 -54 -21 -65 0 -12 -7 -27 -15 -34 -24 -20 -17 -60 23 -135 30
-58 41 -70 62 -70 19 0 31 13 60 61 19 34 67 91 109 130 40 38 93 94 117 126
38 49 49 57 86 63 24 3 56 9 72 12 l29 5 -9 57 c-4 31 -7 78 -6 105 2 51 23
88 154 267 29 41 41 68 42 95 1 34 -3 40 -39 61 -43 25 -77 27 -203 12z"/>
<path d="M10368 2078 c-24 -47 -59 -158 -73 -229 -3 -16 -27 -43 -65 -73 -36
-28 -60 -55 -60 -66 0 -31 41 -62 75 -58 l30 3 -3 -51 c-5 -71 9 -94 57 -94
30 0 45 7 74 36 44 44 52 78 37 147 -6 28 -15 70 -20 92 -6 28 -4 47 6 67 9
17 17 75 21 153 l6 125 -29 0 c-26 0 -33 -7 -56 -52z"/>
<path d="M6038 1963 c-29 -7 -47 -75 -54 -207 -6 -107 -10 -128 -25 -136 -10
-6 -20 -10 -23 -10 -7 0 -36 99 -36 126 0 34 -25 50 -52 32 -16 -11 -30 -40
-47 -100 -22 -78 -26 -85 -55 -94 -42 -12 -47 -57 -12 -111 22 -34 25 -48 24
-137 -1 -97 0 -100 27 -122 40 -31 90 -44 205 -49 56 -3 107 -9 114 -12 6 -4
58 -8 116 -9 128 -2 324 -19 365 -32 17 -5 52 -20 79 -31 l50 -22 48 31 49 30
47 -24 c26 -13 65 -29 87 -35 22 -6 64 -26 94 -46 51 -32 60 -34 130 -33 116
2 117 1 126 -88 7 -73 7 -75 43 -93 46 -23 222 -61 284 -61 25 0 65 -7 89 -16
24 -8 74 -18 110 -21 64 -5 67 -5 113 31 26 20 55 36 65 36 10 0 51 11 91 25
54 18 95 25 152 25 51 0 92 6 116 17 52 23 220 27 290 7 50 -14 55 -14 100 7
34 16 70 22 132 24 48 2 101 9 122 18 20 8 61 15 91 15 44 -1 65 6 110 32 54
33 87 72 87 104 0 9 17 32 39 51 21 19 41 44 44 55 6 25 -19 52 -42 46 -48
-13 -90 -16 -96 -6 -4 6 12 31 34 55 43 47 51 74 26 95 -12 10 -25 5 -71 -31
-30 -23 -70 -60 -88 -81 -18 -21 -39 -38 -46 -38 -6 0 -25 11 -42 25 -16 14
-38 25 -48 25 -11 0 -87 -34 -170 -75 -155 -76 -202 -92 -245 -81 -24 6 -24 8
-27 118 l-3 112 -75 53 c-41 29 -83 53 -94 53 -11 0 -34 -11 -52 -25 -18 -14
-42 -25 -54 -25 -12 0 -38 -10 -59 -22 l-38 -22 -46 33 c-40 29 -50 32 -84 26
-53 -10 -276 -5 -287 6 -6 5 -18 9 -27 9 -13 0 -18 13 -23 54 -5 37 -13 57
-24 61 -9 4 -148 9 -309 12 l-292 4 -42 -38 c-42 -38 -43 -38 -128 -38 -52 -1
-95 -6 -110 -14 -38 -21 -66 -2 -80 56 -37 141 -40 145 -124 137 -58 -5 -61
-4 -42 10 49 39 55 47 55 73 0 89 -45 145 -108 136 -55 -8 -78 -27 -114 -93
l-33 -60 -55 -2 c-80 -3 -184 2 -192 11 -4 3 -13 54 -19 111 -16 159 -18 162
-61 153z"/>
</g>
</svg>
